<?xml version="1.0" standalone="no"?>
<svg xmlns="http://www.w3.org/2000/svg" xmlns:xlink="http://www.w3.org/1999/xlink" version="1.1" class="deformed-bar-chart" width="600" height="510" style="background-color: transparent; font-size: 14px; font-family: &quot;思源宋体 超粗&quot;; letter-spacing: 0px; user-select: none;" totalHeight="35"><defs><clipPath id="5jh96l1ia7llp9n"><rect x="0" y="0" width="567.96" height="301.69105213430396"/></clipPath></defs><g class="svg-group" opacity="1" transform="translate(16.02,15.963000000000001)"><g class="main-group" transform="translate(0,60.65699996948242)"><g class="core-group" transform="translate(0.5,0)"><g class="plane-grid preview-hidden"><g class="" fill="none" stroke="#D9D9D9" style="stroke-width: 1; stroke-dasharray: none; pointer-events: none;"/></g><g class="deformed-bar"><g style="transform: scale(1);"><g class="deformed-bar-group"><g transform="rotate(0 96.46622890254861,241.2288166089296)"><path fill="rgb(255,235,59)" stroke="rgba(255, 235, 59, 1.00)" stroke-width="0" transform="translate(96.46623229980469, 241.22882080078125) scale(1,1)" style="fill-opacity: 0.56;" d="M -94.29875421949028 60.46223552537436 L 94.29875421949028 60.46223552537436 C 9.429875421949028 60.46223552537436 9.429875421949028 0 0 -60.46223552537436 C -9.429875421949028 0 -9.429875421949028 60.46223552537436 -94.29875421949028 60.46223552537436 Z"/></g></g><g class="deformed-bar-group"><g transform="rotate(0 190.76498312203887,186.96783600923465)"><path fill="rgb(253,216,53)" stroke="rgba(253, 216, 53, 1.00)" stroke-width="0" transform="translate(190.76498413085938, 186.96783447265625) scale(1,1)" style="fill-opacity: 0.56;" d="M -94.29875421949028 114.72321612506933 L 94.29875421949028 114.72321612506933 C 9.429875421949028 114.72321612506933 9.429875421949028 0 0 -114.72321612506933 C -9.429875421949028 0 -9.429875421949028 114.72321612506933 -94.29875421949028 114.72321612506933 Z"/></g></g><g class="deformed-bar-group"><g transform="rotate(0 285.0637373415292,198.33680337298023)"><path fill="rgb(251,192,45)" stroke="rgba(251, 192, 45, 1.00)" stroke-width="0" transform="translate(285.0637512207031, 198.33680725097656) scale(1,1)" style="fill-opacity: 0.56;" d="M -94.29875421949028 103.35424876132373 L 94.29875421949028 103.35424876132373 C 9.429875421949028 103.35424876132373 9.429875421949028 0 0 -103.35424876132373 C -9.429875421949028 0 -9.429875421949028 103.35424876132373 -94.29875421949028 103.35424876132373 Z"/></g></g><g class="deformed-bar-group"><g transform="rotate(0 379.36249156101945,207.12191451769274)"><path fill="rgb(249,168,37)" stroke="rgba(249, 168, 37, 1.00)" stroke-width="0" transform="translate(379.36248779296875, 207.12191772460938) scale(1,1)" style="fill-opacity: 0.56;" d="M -94.29875421949028 94.56913761661121 L 94.29875421949028 94.56913761661121 C 9.429875421949028 94.56913761661121 9.429875421949028 0 0 -94.56913761661121 C -9.429875421949028 0 -9.429875421949028 94.56913761661121 -94.29875421949028 94.56913761661121 Z"/></g></g><g class="deformed-bar-group"><g transform="rotate(0 473.6612457805097,158.02864635606397)"><path fill="rgb(245,127,23)" stroke="rgba(245, 127, 23, 1.00)" stroke-width="0" transform="translate(473.6612548828125, 158.0286407470703) scale(1,1)" style="fill-opacity: 0.56;" d="M -94.29875421949028 143.66240577824 L 94.29875421949028 143.66240577824 C 9.429875421949028 143.66240577824 9.429875421949028 0 0 -143.66240577824 C -9.429875421949028 0 -9.429875421949028 143.66240577824 -94.29875421949028 143.66240577824 Z"/></g></g><g/><g><text class="deform-text" x="96.46622890254861" y="174.57858108355524" dy="0" fill="#333333" text-anchor="middle" style="font-size: 14px; font-family: OPPOSans-M; display: block; opacity: 1; visibility: visible;">11.70%</text><text class="deform-text" x="190.76498312203887" y="66.0566198841653" dy="0" fill="#333333" text-anchor="middle" style="font-size: 14px; font-family: OPPOSans-M; display: block; opacity: 1; visibility: visible;">22.20%</text><text class="deform-text" x="285.06373734152913" y="88.7945546116565" dy="0" fill="#333333" text-anchor="middle" style="font-size: 14px; font-family: OPPOSans-M; display: block; opacity: 1; visibility: visible;">20.00%</text><text class="deform-text" x="379.36249156101945" y="106.36477690108153" dy="0" fill="#333333" text-anchor="middle" style="font-size: 14px; font-family: OPPOSans-M; display: block; opacity: 1; visibility: visible;">18.30%</text><text class="deform-text" x="473.6612457805097" y="8.178240577823988" dy="0" fill="#333333" text-anchor="middle" style="font-size: 14px; font-family: OPPOSans-M; display: block; opacity: 1; visibility: visible;">27.80%</text></g></g><defs/></g><rect class="selectOverlay-rect" x="0" y="0" width="94.29875421949028" height="301.69105213430396" fill="#ccc" style="display: none; opacity: 0.15;" transform="translate(520.8106079101562, 0)"/><g class="bands-overlay" style="opacity: 0;"><rect class="band-0" x="49.31685179280346" y="0" width="94.29875421949028" height="301.69105213430396" fill="#000" style="opacity: 0;"/><rect class="band-1" x="143.61560601229374" y="0" width="94.29875421949028" height="301.69105213430396" fill="#000" style="opacity: 0;"/><rect class="band-2" x="237.914360231784" y="0" width="94.29875421949028" height="301.69105213430396" fill="#000" style="opacity: 0;"/><rect class="band-3" x="332.21311445127435" y="0" width="94.29875421949028" height="301.69105213430396" fill="#000" style="opacity: 0;"/><rect class="band-4" x="426.5118686707646" y="0" width="94.29875421949028" height="301.69105213430396" fill="#000" style="opacity: 0;"/><rect class="band-5" x="520.8106228902549" y="0" width="94.29875421949028" height="301.69105213430396" fill="#000" style="opacity: 0;"/></g></g><g class="axis-x-line preview-hidden" transform="translate(0,301.69105213430396)"><g><g class="axis-group" fill="none" font-size="10" font-family="sans-serif" text-anchor="middle" style="font-size: 14px; font-family: &quot;思源宋体 超粗&quot;;"><path class="domain" stroke="#4D4D4D" transform="translate(0,0)" d="M2.667474683058323,0.5V0.5H568.46V0.5" style="stroke-width: 1; display: block;"/><g class="tick" opacity="1" transform="translate(49.31685179280346,0)"><line stroke="#4D4D4D" y2="5" transform="translate(0,0)" style="stroke-width: 1; display: block;"/><g transform="translate(4.949747468305832,17.899494936611667)"/><g transform="translate(4.949747468305832,17.899494936611667)"/><g transform="translate(4.949747468305832,17.899494936611667)"/><g transform="translate(4.949747468305832,17.899494936611667)"/><g transform="translate(4.949747468305832,17.899494936611667)"/><g transform="translate(4.949747468305832,17.899494936611667)"/><g transform="translate(4.949747468305832,17.899494936611667)"/><g transform="translate(4.949747468305832,17.899494936611667)"/><g transform="translate(4.949747468305832,17.899494936611667)"/><g transform="translate(4.949747468305832,17.899494936611667)"/><g transform="translate(4.949747468305832,17.899494936611667)"/><g transform="translate(4.949747468305832,17.899494936611667)"/><g transform="translate(4.949747468305832,17.899494936611667)"><text opacity="1" fill="#333333" transform="translate(47.14937710974514,0) rotate(-45)" style="text-anchor: end; display: block; font-size: 14px; font-family: &quot;思源宋体 超粗&quot;;">一线城市</text></g></g><g class="tick" opacity="1" transform="translate(143.61560601229374,0)"><line stroke="#4D4D4D" y2="5" transform="translate(0,0)" style="stroke-width: 1; display: block;"/><g transform="translate(4.949747468305832,17.899494936611667)"/><g transform="translate(4.949747468305832,17.899494936611667)"/><g transform="translate(4.949747468305832,17.899494936611667)"/><g transform="translate(4.949747468305832,17.899494936611667)"/><g transform="translate(4.949747468305832,17.899494936611667)"/><g transform="translate(4.949747468305832,17.899494936611667)"/><g transform="translate(4.949747468305832,17.899494936611667)"/><g transform="translate(4.949747468305832,17.899494936611667)"/><g transform="translate(4.949747468305832,17.899494936611667)"/><g transform="translate(4.949747468305832,17.899494936611667)"/><g transform="translate(4.949747468305832,17.899494936611667)"/><g transform="translate(4.949747468305832,17.899494936611667)"/><g transform="translate(4.949747468305832,17.899494936611667)"><text opacity="1" fill="#333333" transform="translate(47.14937710974514,0) rotate(-45)" style="text-anchor: end; display: block; font-size: 14px; font-family: &quot;思源宋体 超粗&quot;;">新一线城市</text></g></g><g class="tick" opacity="1" transform="translate(237.914360231784,0)"><line stroke="#4D4D4D" y2="5" transform="translate(0,0)" style="stroke-width: 1; display: block;"/><g transform="translate(4.949747468305832,17.899494936611667)"/><g transform="translate(4.949747468305832,17.899494936611667)"/><g transform="translate(4.949747468305832,17.899494936611667)"/><g transform="translate(4.949747468305832,17.899494936611667)"/><g transform="translate(4.949747468305832,17.899494936611667)"/><g transform="translate(4.949747468305832,17.899494936611667)"/><g transform="translate(4.949747468305832,17.899494936611667)"/><g transform="translate(4.949747468305832,17.899494936611667)"/><g transform="translate(4.949747468305832,17.899494936611667)"/><g transform="translate(4.949747468305832,17.899494936611667)"/><g transform="translate(4.949747468305832,17.899494936611667)"/><g transform="translate(4.949747468305832,17.899494936611667)"/><g transform="translate(4.949747468305832,17.899494936611667)"><text opacity="1" fill="#333333" transform="translate(47.14937710974514,0) rotate(-45)" style="text-anchor: end; display: block; font-size: 14px; font-family: &quot;思源宋体 超粗&quot;;">二线城市</text></g></g><g class="tick" opacity="1" transform="translate(332.21311445127435,0)"><line stroke="#4D4D4D" y2="5" transform="translate(0,0)" style="stroke-width: 1; display: block;"/><g transform="translate(4.949747468305832,17.899494936611667)"/><g transform="translate(4.949747468305832,17.899494936611667)"/><g transform="translate(4.949747468305832,17.899494936611667)"/><g transform="translate(4.949747468305832,17.899494936611667)"/><g transform="translate(4.949747468305832,17.899494936611667)"/><g transform="translate(4.949747468305832,17.899494936611667)"/><g transform="translate(4.949747468305832,17.899494936611667)"/><g transform="translate(4.949747468305832,17.899494936611667)"/><g transform="translate(4.949747468305832,17.899494936611667)"/><g transform="translate(4.949747468305832,17.899494936611667)"/><g transform="translate(4.949747468305832,17.899494936611667)"/><g transform="translate(4.949747468305832,17.899494936611667)"/><g transform="translate(4.949747468305832,17.899494936611667)"><text opacity="1" fill="#333333" transform="translate(47.14937710974514,0) rotate(-45)" style="text-anchor: end; display: block; font-size: 14px; font-family: &quot;思源宋体 超粗&quot;;">三线城市</text></g></g><g class="tick" opacity="1" transform="translate(426.5118686707646,0)"><line stroke="#4D4D4D" y2="5" transform="translate(0,0)" style="stroke-width: 1; display: block;"/><g transform="translate(4.949747468305832,17.899494936611667)"/><g transform="translate(4.949747468305832,17.899494936611667)"/><g transform="translate(4.949747468305832,17.899494936611667)"/><g transform="translate(4.949747468305832,17.899494936611667)"/><g transform="translate(4.949747468305832,17.899494936611667)"/><g transform="translate(4.949747468305832,17.899494936611667)"/><g transform="translate(4.949747468305832,17.899494936611667)"/><g transform="translate(4.949747468305832,17.899494936611667)"/><g transform="translate(4.949747468305832,17.899494936611667)"/><g transform="translate(4.949747468305832,17.899494936611667)"/><g transform="translate(4.949747468305832,17.899494936611667)"/><g transform="translate(4.949747468305832,17.899494936611667)"/><g transform="translate(4.949747468305832,17.899494936611667)"><text opacity="1" fill="#333333" transform="translate(47.14937710974514,0) rotate(-45)" style="text-anchor: end; display: block; font-size: 14px; font-family: &quot;思源宋体 超粗&quot;;">四线及以下城市</text></g></g><g class="tick" opacity="1" transform="translate(520.8106228902549,0)"><line stroke="#4D4D4D" y2="5" transform="translate(0,0)" style="stroke-width: 1; display: block;"/><g transform="translate(4.949747468305832,17.899494936611667)"/><g transform="translate(4.949747468305832,17.899494936611667)"/><g transform="translate(4.949747468305832,17.899494936611667)"/><g transform="translate(4.949747468305832,17.899494936611667)"/><g transform="translate(4.949747468305832,17.899494936611667)"/><g transform="translate(4.949747468305832,17.899494936611667)"/><g transform="translate(4.949747468305832,17.899494936611667)"/><g transform="translate(4.949747468305832,17.899494936611667)"/><g transform="translate(4.949747468305832,17.899494936611667)"/><g transform="translate(4.949747468305832,17.899494936611667)"/><g transform="translate(4.949747468305832,17.899494936611667)"/><g transform="translate(4.949747468305832,17.899494936611667)"/><g transform="translate(4.949747468305832,17.899494936611667)"><text opacity="1" fill="#333333" transform="translate(47.14937710974514,0) rotate(-45)" style="text-anchor: end; display: block; font-size: 14px; font-family: &quot;思源宋体 超粗&quot;;"/></g></g></g></g></g><g class="axis-y-line preview-hidden" transform="translate(2.167474683058323,0)"><g><g class="axis-group" fill="none" font-size="10" font-family="sans-serif" text-anchor="end"><path class="domain" stroke="#4D4D4D" d="M0,302.19105213430396H0.5V0.5H0" style="stroke-width: 1; display: none;"/><g class="tick" opacity="1" transform="translate(0, 302.1910400390625)"><line stroke="#4D4D4D" x2="-5" style="stroke-width: 1; display: none;"/><text fill="#333333" x="-7.99" y="5.6000000000000005" style="font-size: 14px; font-family: &quot;思源宋体 超粗&quot;; display: none;">0</text></g><g class="tick" opacity="1" transform="translate(0, 250.51393127441406)"><line stroke="#4D4D4D" x2="-5" style="stroke-width: 1; display: none;"/><text fill="#333333" x="-7.99" y="5.6000000000000005" style="font-size: 14px; font-family: &quot;思源宋体 超粗&quot;; display: none;">5</text></g><g class="tick" opacity="1" transform="translate(0, 198.83680725097656)"><line stroke="#4D4D4D" x2="-5" style="stroke-width: 1; display: none;"/><text fill="#333333" x="-7.99" y="5.6000000000000005" style="font-size: 14px; font-family: &quot;思源宋体 超粗&quot;; display: none;">10</text></g><g class="tick" opacity="1" transform="translate(0, 147.15968322753906)"><line stroke="#4D4D4D" x2="-5" style="stroke-width: 1; display: none;"/><text fill="#333333" x="-7.99" y="5.6000000000000005" style="font-size: 14px; font-family: &quot;思源宋体 超粗&quot;; display: none;">15</text></g><g class="tick" opacity="1" transform="translate(0, 95.48255157470703)"><line stroke="#4D4D4D" x2="-5" style="stroke-width: 1; display: none;"/><text fill="#333333" x="-7.99" y="5.6000000000000005" style="font-size: 14px; font-family: &quot;思源宋体 超粗&quot;; display: none;">20</text></g><g class="tick" opacity="1" transform="translate(0, 43.8054313659668)"><line stroke="#4D4D4D" x2="-5" style="stroke-width: 1; display: none;"/><text fill="#333333" x="-7.99" y="5.6000000000000005" style="font-size: 14px; font-family: &quot;思源宋体 超粗&quot;; display: none;">25</text></g></g></g></g></g><g class="unit-group"><text transform="translate(0,60.65699996948242)" style="display: none;"/></g><g class="source-group"><text y="12" fill="#333333" style="font-size: 12px; font-family: OPPOSans-R; text-anchor: start; letter-spacing: 0px; display: block;" transform="translate(0,462.45201159667965)"><tspan x="0" y="12">数据来源：极光iAPP（Aurora Mobie，NASDAQ：JG）</tspan></text></g><g class="publish-logo-group" transform="translate(0,478.73699999999997)" style="display: none;"/><g class="legend preview-hidden" style="display: none;" transform="translate(0,451.63201159667966)"><g/></g><text class="title-text" y="30" fill="#111111" style="font-size: 30px; font-family: &quot;思源宋体 超粗&quot;; text-anchor: middle; letter-spacing: 0px; display: block;" transform="translate(283.98,0)"><tspan x="0" y="30">2023年外卖城市分布</tspan></text></g></svg>